<mxfile host="app.diagrams.net" modified="2023-06-03T09:43:11.213Z" agent="Mozilla/5.0 (Windows NT 10.0; Win64; x64; rv:109.0) Gecko/20100101 Firefox/113.0" etag="ZcIg8xrCKmy8yZIxju58" version="21.3.6" type="device">
  <diagram name="PÃ¡gina-1" id="30-rEjC_GcisaVwthBQx">
    <mxGraphModel dx="1304" dy="704" grid="1" gridSize="10" guides="1" tooltips="1" connect="1" arrows="1" fold="1" page="1" pageScale="1" pageWidth="827" pageHeight="1169" math="0" shadow="0">
      <root>
        <mxCell id="0" />
        <mxCell id="1" parent="0" />
        <mxCell id="TEfpkvqrKe-TD6mFksQv-17" value="" style="endArrow=none;html=1;rounded=0;entryX=0.195;entryY=0.979;entryDx=0;entryDy=0;entryPerimeter=0;strokeColor=#0F0F0F;" parent="1" target="TEfpkvqrKe-TD6mFksQv-23" edge="1">
          <mxGeometry width="50" height="50" relative="1" as="geometry">
            <mxPoint x="231.24" y="563" as="sourcePoint" />
            <mxPoint x="291.24" y="539.85" as="targetPoint" />
            <Array as="points">
              <mxPoint x="231.24" y="540" />
            </Array>
          </mxGeometry>
        </mxCell>
        <mxCell id="TEfpkvqrKe-TD6mFksQv-23" value="" style="rounded=0;whiteSpace=wrap;html=1;rotation=90;" parent="1" vertex="1">
          <mxGeometry x="294.99" y="531.25" width="75" height="62.5" as="geometry" />
        </mxCell>
        <mxCell id="TEfpkvqrKe-TD6mFksQv-24" value="" style="triangle;whiteSpace=wrap;html=1;" parent="1" vertex="1">
          <mxGeometry x="301.24" y="557.5" width="10" height="10" as="geometry" />
        </mxCell>
        <mxCell id="TEfpkvqrKe-TD6mFksQv-28" value="" style="endArrow=none;html=1;rounded=0;entryX=0;entryY=0.5;entryDx=0;entryDy=0;" parent="1" target="TEfpkvqrKe-TD6mFksQv-24" edge="1">
          <mxGeometry width="50" height="50" relative="1" as="geometry">
            <mxPoint x="100" y="620" as="sourcePoint" />
            <mxPoint x="320" y="470" as="targetPoint" />
            <Array as="points">
              <mxPoint x="270" y="620" />
              <mxPoint x="270" y="563" />
            </Array>
          </mxGeometry>
        </mxCell>
        <mxCell id="TEfpkvqrKe-TD6mFksQv-30" value="&lt;div&gt;Clk&lt;/div&gt;" style="text;html=1;align=center;verticalAlign=middle;resizable=0;points=[];autosize=1;strokeColor=none;fillColor=none;" parent="1" vertex="1">
          <mxGeometry x="105" y="620" width="40" height="30" as="geometry" />
        </mxCell>
        <mxCell id="TEfpkvqrKe-TD6mFksQv-34" value="D1" style="text;whiteSpace=wrap;html=1;" parent="1" vertex="1">
          <mxGeometry x="301.24" y="520" width="30" height="20" as="geometry" />
        </mxCell>
        <mxCell id="TEfpkvqrKe-TD6mFksQv-35" value="Q1" style="text;whiteSpace=wrap;html=1;" parent="1" vertex="1">
          <mxGeometry x="341.24" y="520" width="20" height="20" as="geometry" />
        </mxCell>
        <mxCell id="TEfpkvqrKe-TD6mFksQv-49" value="" style="endArrow=none;html=1;rounded=0;entryX=0.195;entryY=0.979;entryDx=0;entryDy=0;entryPerimeter=0;strokeColor=#FF0000;" parent="1" target="TEfpkvqrKe-TD6mFksQv-50" edge="1">
          <mxGeometry width="50" height="50" relative="1" as="geometry">
            <mxPoint x="250" y="180" as="sourcePoint" />
            <mxPoint x="285.62" y="179.85000000000002" as="targetPoint" />
          </mxGeometry>
        </mxCell>
        <mxCell id="TEfpkvqrKe-TD6mFksQv-50" value="" style="rounded=0;whiteSpace=wrap;html=1;rotation=90;" parent="1" vertex="1">
          <mxGeometry x="289.37" y="171.25" width="75" height="62.5" as="geometry" />
        </mxCell>
        <mxCell id="TEfpkvqrKe-TD6mFksQv-51" value="" style="triangle;whiteSpace=wrap;html=1;" parent="1" vertex="1">
          <mxGeometry x="295.62" y="197.5" width="10" height="10" as="geometry" />
        </mxCell>
        <mxCell id="TEfpkvqrKe-TD6mFksQv-53" value="" style="endArrow=none;html=1;rounded=0;entryX=0;entryY=0.5;entryDx=0;entryDy=0;" parent="1" target="TEfpkvqrKe-TD6mFksQv-51" edge="1">
          <mxGeometry width="50" height="50" relative="1" as="geometry">
            <mxPoint x="270" y="620" as="sourcePoint" />
            <mxPoint x="674" y="470" as="targetPoint" />
            <Array as="points">
              <mxPoint x="160" y="620" />
              <mxPoint x="160" y="203" />
            </Array>
          </mxGeometry>
        </mxCell>
        <mxCell id="TEfpkvqrKe-TD6mFksQv-58" value="D2" style="text;whiteSpace=wrap;html=1;" parent="1" vertex="1">
          <mxGeometry x="295.62" y="160" width="30" height="20" as="geometry" />
        </mxCell>
        <mxCell id="TEfpkvqrKe-TD6mFksQv-59" value="Q2" style="text;whiteSpace=wrap;html=1;" parent="1" vertex="1">
          <mxGeometry x="331.62" y="160" width="20" height="20" as="geometry" />
        </mxCell>
        <mxCell id="SLh8XtCbxZb6GyfAIJV1-1" value="" style="endArrow=none;html=1;rounded=0;strokeColor=#FF0000;exitX=0.201;exitY=-0.016;exitDx=0;exitDy=0;exitPerimeter=0;" edge="1" parent="1" source="TEfpkvqrKe-TD6mFksQv-23">
          <mxGeometry width="50" height="50" relative="1" as="geometry">
            <mxPoint x="360" y="440" as="sourcePoint" />
            <mxPoint x="250" y="180" as="targetPoint" />
            <Array as="points">
              <mxPoint x="440" y="540" />
              <mxPoint x="440" y="80" />
              <mxPoint x="250" y="80" />
            </Array>
          </mxGeometry>
        </mxCell>
        <mxCell id="SLh8XtCbxZb6GyfAIJV1-2" value="" style="endArrow=none;html=1;rounded=0;strokeColor=#0F0F0F;entryX=0.144;entryY=-0.017;entryDx=0;entryDy=0;entryPerimeter=0;" edge="1" parent="1" target="TEfpkvqrKe-TD6mFksQv-50">
          <mxGeometry width="50" height="50" relative="1" as="geometry">
            <mxPoint x="400" y="140" as="sourcePoint" />
            <mxPoint x="390" y="180" as="targetPoint" />
            <Array as="points">
              <mxPoint x="400" y="176" />
            </Array>
          </mxGeometry>
        </mxCell>
      </root>
    </mxGraphModel>
  </diagram>
</mxfile>
